<?xml version="1.0" encoding="utf-8"?>
<!-- Generator: Adobe Illustrator 27.0.0, SVG Export Plug-In . SVG Version: 6.00 Build 0)  -->
<svg version="1.1" id="Layer_1" xmlns="http://www.w3.org/2000/svg" xmlns:xlink="http://www.w3.org/1999/xlink" x="0px" y="0px"
	 viewBox="0 0 400 400" style="enable-background:new 0 0 400 400;" xml:space="preserve">
<path d="M245.5,40.7c-10.6-3.1-21.7,3.1-24.8,13.8l-80,280c-3.1,10.6,3.1,21.7,13.8,24.8c10.6,3.1,21.7-3.1,24.8-13.8l80-280
	C262.3,54.9,256.1,43.8,245.5,40.7L245.5,40.7z M295.9,115.8c-7.8,7.8-7.8,20.5,0,28.3l55.8,55.9l-55.9,55.9
	c-7.8,7.8-7.8,20.5,0,28.3s20.5,7.8,28.3,0l70-70c7.8-7.8,7.8-20.5,0-28.3l-70-70C316.3,108.1,303.6,108.1,295.9,115.8L295.9,115.8z
	 M104.2,115.8c-7.8-7.8-20.5-7.8-28.3,0l-70,70c-7.8,7.8-7.8,20.5,0,28.3l70,70c7.8,7.8,20.5,7.8,28.3,0s7.8-20.5,0-28.3L48.3,200
	l55.9-55.9C112,136.3,112,123.6,104.2,115.8L104.2,115.8z"/>
</svg>
