<?xml version="1.0" encoding="utf-8"?>
<!-- Generator: Adobe Illustrator 27.0.0, SVG Export Plug-In . SVG Version: 6.00 Build 0)  -->
<svg version="1.1" id="Layer_1" xmlns="http://www.w3.org/2000/svg" xmlns:xlink="http://www.w3.org/1999/xlink" x="0px" y="0px"
	 viewBox="0 0 400 400" style="enable-background:new 0 0 400 400;" xml:space="preserve">
<g>
	<path d="M28.2,8c9.6,3.5,12.7,10.5,12.6,20.4c-0.2,93.8-0.1,187.6-0.1,281.4c0,18.8,7.8,33.1,23.8,43c6.7,4.1,14.1,6.3,22,6.5
		c2,0,4,0.1,6,0.1c93,0,186.1,0.1,279.1-0.1c9.9,0,16.9,3.1,20.4,12.6c0,2.2,0,4.5,0,6.7c-3,8.2-8.4,12.8-17.6,12.8
		c-95.1-0.1-190.1,0-285.2-0.1c-5.9,0-12-0.6-17.8-1.9C34.1,380.8,8.8,349,8.8,310.7C8.7,216.4,8.8,122.1,8.6,27.8
		C8.6,18,12,11.2,21.5,8C23.7,8,26,8,28.2,8z"/>
	<path d="M392,26.7c-1.6,5.3-5.2,9.1-9,13c-27.7,27.5-55.2,55.2-82.9,82.8c-21.5,21.5-50.3,21.5-71.7,0.1
		c-10.5-10.5-21-21-31.5-31.5c-7.8-7.8-17.3-7.8-25.1-0.1c-18.4,18.3-36.7,36.7-55,55c-4.2,4.3-9.1,6.6-15.2,5.4
		c-6.1-1.2-10.4-4.8-12.3-10.8c-1.9-6.1-0.6-11.6,3.9-16.2c6.8-7,13.7-13.8,20.6-20.7c11.9-11.9,23.8-23.8,35.7-35.7
		c19.9-19.8,49.3-19.9,69.3-0.1c10.9,10.8,21.7,21.7,32.6,32.5c8.3,8.3,17.2,8.3,25.5,0c27.9-27.9,55.8-55.7,83.6-83.6
		c3.7-3.7,7.5-7.2,12.7-8.7c1.5,0,3,0,4.5,0c7.7,1.8,12.4,6.6,14.2,14.2C392,23.7,392,25.2,392,26.7z"/>
	<path d="M360,231.4c0,26.4,0.1,52.9,0,79.3c0,11.2-9.1,18.6-19.6,16.2c-6.6-1.5-11.6-7.3-12.1-14c-0.1-1.4-0.1-2.7-0.1-4.1
		c0-51.5,0-103,0-154.5c0-2.3,0-4.8,0.6-7c2.1-7.7,9.3-12.3,17.5-11.3c7.6,0.9,13.5,7.4,13.5,15.4c0.1,22.7,0.1,45.4,0.1,68.1
		C360,223.5,360,227.4,360,231.4z"/>
	<path d="M200.4,239.3c0,23.9,0,47.9,0,71.8c0,7.3-4.3,13.2-10.8,15.4c-6.3,2.1-13.6,0.4-17.4-5.2c-2-3-3.6-7.1-3.6-10.7
		c-0.2-47.4-0.2-94.7-0.1-142.1c0-9.9,7-16.9,16.2-16.8c9,0.1,15.7,7.2,15.7,16.9C200.4,192.2,200.4,215.7,200.4,239.3z"/>
	<path d="M88.7,255.8c0-18.8-0.1-37.6,0-56.5c0-6.6,3.3-11.5,9.3-14.2c5.9-2.7,11.7-1.9,16.8,2.3c3.4,2.8,5.3,6.5,5.6,11
		c0,0.9,0.1,1.7,0.1,2.6c0,36.4,0,72.8,0,109.2c0,8.5-4.5,14.7-11.8,16.6c-10.1,2.6-19.6-4.5-20-15c-0.1-4,0-8,0-12
		C88.7,285.2,88.7,270.5,88.7,255.8C88.7,255.8,88.7,255.8,88.7,255.8z"/>
	<path d="M248.3,263.4c0-15.9-0.1-31.9,0-47.8c0-8,5.6-14.4,13.3-15.7c7.1-1.3,14.6,2.7,17.2,9.6c0.9,2.4,1.4,5.1,1.4,7.6
		c0.1,31,0.1,62,0,93.1c0,10.1-7,17.4-16.2,17.3c-9.2-0.1-15.8-7.3-15.8-17.3C248.3,294.6,248.3,279,248.3,263.4z"/>
</g>
</svg>
