<?xml version="1.0" encoding="UTF-8"?>
<svg id="Layer_1" data-name="Layer 1" xmlns="http://www.w3.org/2000/svg" viewBox="0 0 400 400">
  <path d="M332.13,137.63c-1.22,31.6-6.05,62.47-18.18,91.91-16.67,40.44-44.31,71.68-80.68,95.42-8.52,5.56-17.55,10.33-26.37,15.41-4.82,2.78-9.56,2.53-14.52-.05-25.55-13.26-48.82-29.55-68.5-50.75-25.12-27.05-41.12-58.83-49.4-94.65-5.39-23.34-7.34-47.04-7.19-70.94,.05-7.23,5.02-12.83,12.42-12.93,40.93-.55,75.88-17.34,108.9-39.55,.59-.4,1.17-.81,1.75-1.22,7.3-5.06,11.43-5.13,18.78,.06,15.16,10.69,31.16,19.85,48.28,27.02,19.51,8.17,39.61,13.59,60.96,13.6,8.67,0,13.75,5.51,13.75,14.22,0,4.15,0,8.3,0,12.45Zm-132.68,124.7h0c8.78-.01,17.56,.11,26.33-.04,11.4-.2,20.68-9.26,20.83-20.6,.21-15.65,.18-31.31,0-46.97-.08-6.93-3.07-12.81-8.95-16.51-3.05-1.92-3.82-3.95-3.89-7.31-.42-22.75-19.73-37.81-41.94-32.89-16.31,3.61-26.18,16.35-26.23,34.16,0,2.54-.68,3.92-2.89,5.3-6.63,4.13-9.94,10.34-9.97,18.16-.06,14.94-.07,29.89,0,44.83,.06,12.58,9.23,21.75,21.8,21.85,8.3,.06,16.61,.01,24.91,.01Z"/>
  <path d="M89.6,344.33c-16.18,11.42-32.32,5.29-40.06-3.96-9.04-10.8-8.89-26.84,.54-37.51,9.26-10.47,25.01-12.61,36.89-5.02,13.08,8.37,16.3,23,8.6,40.17,1.12,.85,2.28,1.79,3.51,2.65,35.09,24.8,74.15,36.02,116.82,31.29,66.74-7.41,114.46-42.45,142.49-103.32,15.71-34.11,18.21-70.07,10.43-106.76-.15-.69-.32-1.38-.44-2.08-.47-2.71,.38-4.85,3.2-5.45,2.85-.61,4.56,1.1,5.11,3.72,1.11,5.21,2.32,10.43,2.96,15.71,7.37,60.91-9.97,113.7-53.94,156.6-37.04,36.14-82.31,52.73-134.06,50.88-36.16-1.29-68.87-13.03-98.23-34.13-1.25-.89-2.48-1.81-3.81-2.77Z"/>
  <path d="M290.26,52.11c-10.14-6.35-20.78-11.44-31.96-15.39C160.62,2.21,56.35,58.37,31.32,159.03c-5.77,23.21-6.23,46.68-2.36,70.26,.71,4.33-.2,6.28-2.97,6.82-2.98,.59-4.73-1.08-5.43-5.44-7.41-46.41,.78-89.85,26.43-129.29C76.88,55.42,119.51,28.12,173.66,19.94c41.99-6.35,81.61,1.79,118.33,23.28,2.42,1.42,3.81,1.43,6.08-.4,9.72-7.83,23.73-7.06,32.89,1.51,9.27,8.67,10.8,22.61,3.63,33.07-7.05,10.28-20.59,13.95-31.85,8.63-11.36-5.36-17.16-18.03-13.72-30.01,.36-1.24,.78-2.46,1.24-3.91Z"/>
  <path d="M174.3,173.84c-1.35-16.05,9.72-28.25,25.39-28.26,15.68,0,26.68,12.11,25.42,28.26h-50.81Z"/>
  <path d="M199.57,239.56c-10.74,0-11.79-1.26-9.77-11.82,.6-3.13,1.28-6.25,1.94-9.37,.68-3.23,1.22-6.25-.56-9.57-1.82-3.39-.19-7.74,2.87-10.13,3.04-2.37,7.38-2.55,10.63-.45,3.19,2.05,5.49,6.29,3.85,9.46-2.73,5.27-.83,10.1,.06,15.1,.52,2.91,1.24,5.78,1.73,8.69,.93,5.53-1.22,8.02-6.85,8.08-1.3,.01-2.6,0-3.91,0Z"/>
</svg>
