<?xml version="1.0" encoding="UTF-8"?>
<svg id="Layer_1" data-name="Layer 1" xmlns="http://www.w3.org/2000/svg" viewBox="0 0 400 400">
  <path d="M243.88,46.39c-10.22-2.99-20.93,2.99-23.91,13.31l-77.14,270.01c-2.99,10.22,2.99,20.93,13.31,23.91,10.22,2.99,20.93-2.99,23.91-13.31L257.18,70.3c2.89-10.22-3.09-20.93-13.31-23.91h0Zm48.6,72.42c-7.52,7.52-7.52,19.77,0,27.29l53.81,53.9-53.9,53.9c-7.52,7.52-7.52,19.77,0,27.29s19.77,7.52,27.29,0l67.5-67.5c7.52-7.52,7.52-19.77,0-27.29l-67.5-67.5c-7.52-7.52-19.77-7.52-27.19-.1h0Zm-184.86,0c-7.52-7.52-19.77-7.52-27.29,0L12.83,186.31c-7.52,7.52-7.52,19.77,0,27.29l67.5,67.5c7.52,7.52,19.77,7.52,27.29,0s7.52-19.77,0-27.29l-53.9-53.81,53.9-53.9c7.52-7.52,7.52-19.77,0-27.29h0Z"/>
</svg>