<?xml version="1.0" encoding="utf-8"?>
<!-- Generator: Adobe Illustrator 27.0.0, SVG Export Plug-In . SVG Version: 6.00 Build 0)  -->
<svg version="1.1" id="Layer_1" xmlns="http://www.w3.org/2000/svg" xmlns:xlink="http://www.w3.org/1999/xlink" x="0px" y="0px"
	 viewBox="0 0 400 400" style="enable-background:new 0 0 400 400;" xml:space="preserve">
<g>
	<path d="M85.3,12.7c2.6,0.8,5.3,1.4,7.9,2.3c18,5.9,30.6,21.9,32.2,40.8c0.1,1.2,0.3,2.4,0.5,3.7c1.9,0,3.4,0,5,0
		c69.2,0,138.5,0,207.7,0c25.1,0,43.8,15.9,47.9,40.8c1.2,7.5-0.4,14.8-1.9,22.1c-4.4,21.6-8.4,43.2-13.2,64.7
		c-7.1,31.5-33.6,55-65.7,59.1c-3.7,0.5-7.5,0.6-11.3,0.7c-46.7,0-93.5,0-140.2,0c-1.5,0-2.9,0-5,0c0.6,1.5,0.9,2.7,1.5,3.8
		c9.2,18.3,24.1,27.4,44.5,27.4c42.3,0,84.7,0,127,0c9.3,0,15.1,3.9,17.2,11.6c2.5,8.8-3.6,18.3-12.7,19.4c-1.6,0.2-3.2,0.3-4.7,0.3
		c-42.5,0-84.9,0.1-127.4,0c-37-0.1-67.6-22.7-76.8-57.7c-2.8-10.5-3.5-21.6-4.9-32.4c-2.2-17.8-4.2-35.5-6.3-53.3
		c-2.1-17.5-4.1-35.1-6.1-52.6C98.5,94.5,96.3,75.8,94,57c-0.9-7.4-7.4-12.9-14.9-13c-5.8-0.1-11.7,0-17.5,0
		c-8.9,0-15.6-4.9-17.1-12.4c-1.6-8.3,2.3-14.8,11.1-18.5c0.2-0.1,0.3-0.3,0.5-0.5C65.8,12.7,75.6,12.7,85.3,12.7z"/>
	<path d="M148.1,387.3c-2.5-0.9-5.1-1.6-7.5-2.7c-13.7-6.1-21.1-20.9-17.9-35.4c3.2-14.4,16.8-24.9,31.4-24.3
		c15.3,0.6,27.4,11.4,29.8,26.5c2.5,15.7-7.4,30.9-23,35c-0.9,0.2-1.8,0.6-2.7,0.9C154.9,387.3,151.5,387.3,148.1,387.3z"/>
	<path d="M288.3,387.3c-2.5-0.9-5.1-1.6-7.5-2.7c-13.7-6.1-21.1-20.9-17.9-35.4c3.2-14.4,16.8-24.9,31.4-24.3
		c15.3,0.6,27.4,11.4,29.8,26.5c2.5,15.7-7.4,30.9-23,35c-0.9,0.2-1.8,0.6-2.7,0.9C295.1,387.3,291.7,387.3,288.3,387.3z"/>
	<path d="M13,227.8c3.3-9.2,9.9-12.7,19.5-12.4c14.2,0.3,28.4,0,42.6,0.1c7.6,0.1,13.6,4.9,15.4,12.1c1.7,6.8-1.4,14.1-7.7,17.2
		c-2.4,1.2-5.3,1.8-8,1.9c-15.1,0.2-30.1,0-45.2,0.1c-7.7,0-12.9-3.5-15.8-10.6c-0.2-0.4-0.5-0.8-0.8-1.1
		C13,232.7,13,230.2,13,227.8z"/>
	<path d="M13,164.9c0.5-0.9,1-1.9,1.5-2.8c3-5.6,7.5-8.8,14-8.9c10.3-0.1,20.7,0,31,0c8.8,0,15.6,6.6,15.8,15.2
		c0.2,8.5-6.3,15.8-15.1,16c-10.7,0.3-21.4,0.3-32.1,0c-7.9-0.2-12.5-5.1-15.1-12.2C13,169.8,13,167.3,13,164.9z"/>
	<path d="M13,102.7c3.5-9.1,10.2-12.6,19.7-12.1c7.1,0.4,14.3-0.1,21.5,0.3c7.5,0.5,13,6.2,14,14c0.9,6.6-3.5,13.6-10.1,16.1
		c-1.5,0.5-3.1,0.9-4.6,0.9c-8.6,0.1-17.3,0.2-25.9,0c-7.6-0.3-11.8-5.3-14.6-11.8C13,107.6,13,105.1,13,102.7z"/>
</g>
</svg>
