<?xml version="1.0" encoding="utf-8"?>
<!-- Generator: Adobe Illustrator 27.0.0, SVG Export Plug-In . SVG Version: 6.00 Build 0)  -->
<svg version="1.1" id="Layer_1" xmlns="http://www.w3.org/2000/svg" xmlns:xlink="http://www.w3.org/1999/xlink" x="0px" y="0px"
	 viewBox="0 0 400 400" style="enable-background:new 0 0 400 400;" xml:space="preserve">
<g>
	<path d="M205.4,11c7.6,1.5,15.3,2.3,22.7,4.5c28.9,8.6,50.2,26.7,64.1,53.3c9.8,18.7,13.3,38.8,11,59.6c-1,8.8-3.8,17.4-6,26.1
		c-2.5,9.6-5.4,19.1-7.9,28.6c-1,4,0.1,7.8,2.2,11.3c2.5,4.3,5,8.7,7.6,13.2c-6.8,7.6-15.2,13.1-24.9,15.6
		c-13.7,3.6-27.8,6.1-41.7,9c-1.3,0.3-2.6,0.6-4.2,0.9c2.1,6.1,3.6,12.2,6.2,17.8c3.4,7.3,2.7,14.5,0.8,21.9
		c-5,19.6-15.8,35.2-32.5,46.7c-2,1.3-3.2,1.3-5.1,0c-19.3-13.3-30.6-31.5-33.9-54.6c-0.4-3.1,0.1-6.6,1-9.7
		c2.2-7.3,4.8-14.4,7.4-22.2c-6.3-1-12.4-1.8-18.5-3c-13.6-2.6-27.4-4.9-39.5-12.2c-4.6-2.7-8.7-6.3-13.3-9.6
		c2.6-4.4,4.6-8.4,7.1-12.2c3.7-5.6,4.2-11.6,2.5-17.6c-3.4-11.9-7.8-23.5-10.7-35.5c-7.4-30.6-2.4-59.3,15.2-85.4
		c15.3-22.7,36.7-37.3,63.4-43.6c5.5-1.3,11.1-1.9,16.6-2.8C198.5,11,201.9,11,205.4,11z"/>
	<path d="M137.1,255.2c0.2,3.3-0.6,5.5-3.1,7.5c-15.8,13.1-21.6,33.3-15.2,52.7c2.7-2.6,5.3-5.1,8.1-7.5c5.4-4.7,11.2-8.7,18.2-10.9
		c2.7-0.8,3.9-0.2,5.2,2.1c10.6,17.8,22.5,34.6,36.6,49.8c3.4,3.7,7.4,6.8,11,10.3c1.7,1.6,3.1,1.6,4.7-0.1
		c8.1-8.6,16.8-16.6,24-25.9c8.6-10.9,15.9-22.7,23.6-34.2c1.5-2.2,2.6-2.9,5.3-2c9.6,3,16.8,9.4,23.8,16.2c0.7,0.7,1.2,1.5,2.3,2.9
		c3.4-11.1,3.6-21.4,0.1-31.6c-2.9-8.7-8.1-16-15.2-21.7c-2.6-2.1-3.2-4.3-3.3-7.6c0.8,0.1,1.5,0.2,2.1,0.4
		c15.5,5.2,31.1,10,46.3,15.7c21.7,8.2,36.1,23.1,40,46.8c2.4,14.9,3.8,29.8,0.6,44.7c-2.8,13.1-15.2,23.7-28.6,25.1
		c-4.1,0.4-8.3,0.7-12.5,0.7c-74.7,0-149.4,0-224.2,0c-9.6,0-18.8-1.5-26.8-7.6c-6.7-5-11.4-11.5-12.5-19.7
		c-2.7-19.6-2.2-39.1,5.2-57.7C58.7,289,70,278.8,84.3,273c16.8-6.8,34.3-11.9,51.5-17.7C136.1,255.2,136.5,255.2,137.1,255.2z"/>
</g>
</svg>
