<?xml version="1.0" encoding="utf-8"?>
<!-- Generator: Adobe Illustrator 27.0.0, SVG Export Plug-In . SVG Version: 6.00 Build 0)  -->
<svg version="1.1" id="Layer_1" xmlns="http://www.w3.org/2000/svg" xmlns:xlink="http://www.w3.org/1999/xlink" x="0px" y="0px"
	 viewBox="0 0 400 400" style="enable-background:new 0 0 400 400;" xml:space="preserve">
<g>
	<path d="M218.6,220.2c1.4-5.4,2.5-10,3.7-14.7c-2.3-1.3-4.6-2.5-6.9-3.7c-18.4-10.6-30.6-26.1-36.6-46.5c-0.5-1.8-0.7-3.4-3.2-4
		c-10.3-2.5-17-10.7-17.8-21.1c-0.8-10.5,4.9-19.9,14.4-24.1c1.1-0.5,2.3-1,3.4-1.5c-3.7-45.5,32.6-84.4,77.7-84.7
		c46.5-0.3,82.7,39.8,78.8,84.8c6.7,2.2,12.1,6.2,15.3,12.8c6.7,13.8-0.5,29.9-15.3,34c-1.1,0.3-2.5,1.6-2.8,2.8
		c-6.6,23-20.6,39.6-41.9,50.3c-0.9,0.5-1.8,2.2-1.7,3.3c0.4,2.7,1.3,5.3,2.1,8c0.2,0.7,0.5,1.4,0.9,2.4c13.8,0,27.7-0.1,41.5,0
		c3.2,0,6.5,0.3,9.6,1.1c12.7,3.3,22,14.8,22,28c0.2,27,0.4,54,0,81c-0.4,27.9-24.2,51.3-52.1,51.9c-1.2,0-2.5,0-3.8,0
		c-78.4,0-156.8,0-235.2,0c-7,0-8.2-0.9-9.3-7.8c-4.9-31.7-9.8-63.5-14.7-95.2c-2.9-18.8-5.7-37.5-8.7-56.3c-0.9-6,1.3-8.8,7.4-8.8
		c54.9,0,109.8,0,164.7,0C215.5,212,216.9,213.3,218.6,220.2z M50.8,224.2c6.2,40.2,12.3,80,18.4,119.8c52.2,0,103.9,0,156,0
		c-6.2-40-12.3-79.9-18.4-119.8C154.7,224.2,103,224.2,50.8,224.2z M188,104.2c0,0.6-0.1,1.2-0.1,1.8c-0.2,8.3-0.2,8.3-8.5,10.2
		c-6,1.4-10,6.8-9.5,13c0.5,6,4.8,10.4,10.6,10.7c6.4,0.4,7.7,1.5,8.9,7.8c5.7,28.9,32,51.2,61.6,52.2c33.1,1.1,60.8-20.7,67.6-53.1
		c1.2-5.6,2.5-6.6,8.4-6.9c4.9-0.2,8.6-2.9,10.2-7.5c2.8-7.7-2.1-15.6-10.2-16.5c-5.3-0.6-6.9-2.4-7-7.7c0-1.4,0-2.9,0-4.4
		c-17.3-1.4-32.8-5.5-42.8-20.1C249.8,101.9,218.7,101.8,188,104.2z M289.7,368c6.8,0,14.1,0.3,21.3-0.1c19.3-1.1,35.8-16,38.2-35.2
		c1.2-9.2,0.6-18.7,0.8-28c0.1-2.8,0-5.6,0-8.4c-12.3,0-24.1,0-36,0c0,11.3,0,22.3,0,33.3c0,6.7-1.8,8.5-8.4,8.5
		c-21.6,0-43.2,0-64.9,0c-1.3,0-2.6,0-4.3,0c0.4,2.3,0.8,4.1,1.1,6c11.7,0,23-0.1,34.4,0c9.1,0.1,16.4,6.3,17.8,15.2
		C290.1,362.1,289.7,364.9,289.7,368z M233.9,209.4c-6.2,18.3-5.1,25.6,6.9,34.5c8.7,6.5,20.8,5.3,29.1-2c8.8-7.7,10-19.2,3.3-32.3
		C260.2,212.8,247.1,212.8,233.9,209.4z M253.7,368.1c5.7,0,11.5,0,17.2,0c4.3,0,7-2.6,7-6.2c-0.1-3.5-2.7-5.8-6.9-5.8
		c-11.4,0-22.7,0-34.1,0c-4.3,0-7,2.5-6.9,6.1c0.1,3.5,2.7,5.8,6.9,5.8C242.4,368.2,248.1,368.1,253.7,368.1z"/>
	<path d="M151.8,284.1c0,10-8.2,18.1-18.2,18c-9.8-0.1-17.8-8.2-17.8-18.1c0-10,8.2-18.1,18.2-18
		C143.9,266.2,151.8,274.3,151.8,284.1z"/>
	<path d="M253.7,182c-13.2-0.1-24.9-8.9-28.5-21.5c-1.1-3.9,0.2-7.1,3.6-8.2c3.3-1.1,6.3,0.6,7.8,4.5c3.1,8.4,9.3,13.1,17.3,13.1
		c7.9,0,14.2-4.7,17.3-13c1.5-3.9,4.4-5.7,7.8-4.5c3.4,1.2,4.8,4.3,3.6,8.2C278.9,173.3,267.1,182.1,253.7,182z"/>
	<path d="M211.9,130.9c0-0.5,0-1,0-1.5c0.1-4.7,2.3-7.5,6-7.4c3.7,0,5.9,2.8,6,7.5c0,1.4,0.1,2.8,0,4.1c-0.2,3.8-2.6,6.3-6,6.3
		c-3.4,0-5.8-2.6-6-6.4C211.9,132.7,211.9,131.8,211.9,130.9z"/>
	<path d="M295.9,131.1c0,0.8,0,1.5,0,2.3c-0.2,4-2.6,6.7-6.1,6.6c-3.4-0.1-5.7-2.6-5.8-6.5c-0.1-1.6-0.1-3.3,0-4.9
		c0.1-4,2.6-6.7,6.1-6.6c3.4,0.1,5.7,2.6,5.8,6.5C296,129.4,295.9,130.2,295.9,131.1z"/>
</g>
</svg>
