<?xml version="1.0" encoding="utf-8"?>
<!-- Generator: Adobe Illustrator 27.0.0, SVG Export Plug-In . SVG Version: 6.00 Build 0)  -->
<svg version="1.1" id="Layer_1" xmlns="http://www.w3.org/2000/svg" xmlns:xlink="http://www.w3.org/1999/xlink" x="0px" y="0px"
	 viewBox="0 0 400 400" style="enable-background:new 0 0 400 400;" xml:space="preserve">
<g>
	<path d="M175,22c0.5,0.2,1,0.5,1.5,0.7c14.3,3.5,23.5,14.8,23.5,29.6c0.1,30.2,0,60.5,0,90.7c0,17.7,0,35.5,0,53.2
		c0,1.1,0,2.3,0,3.9c-59.5,0-118.8,0-178.1,0c0-51,0-102,0-153c0.3-0.8,0.6-1.7,0.9-2.5c2.9-10.3,9.3-17.3,19.3-20.9
		c1.6-0.6,3.2-1,4.8-1.6C89.6,22,132.3,22,175,22z M125.3,143.4c14-16.7,21.3-36,23.8-57.5c4.7,0,9.1,0,13.5,0c0-6.2,0-12.2,0-18.6
		c-14.2,0-28.2,0-42.5,0c0-5.1,0-9.8,0-14.6c-6.3,0-12.1,0-18.4,0c0,4.9,0,9.5,0,14.8c-14.5,0-28.5,0-42.5,0c0,6.4,0,12.3,0,18.5
		c23.8,0,47.4,0,71.2,0c-2.3,17.1-7.9,32.3-19.8,46.1c-3.9-6.3-7.3-12-10.9-17.6c-0.6-0.9-1.3-2.5-2-2.5c-6.2-0.2-12.3-0.1-18.9-0.1
		c4.2,12,10.2,22.1,18,31.4c-11.7,7.2-24.3,9.5-37.4,9.9c0,6.3,0,12.3,0,18.4c19.1,0.1,36.4-4.7,51.9-15.5
		c15.6,10.8,32.7,15.6,51.6,15.4c0-6.3,0-12.2,0-18.3C149.5,153,136.9,150.6,125.3,143.4z"/>
	<path d="M21.9,230c9.7,0,19.4,0,29.7,0c0,1.4,0,2.7,0,4.1c0,17.7,0,35.5,0,53.2c0,10.9,5.7,16.6,16.8,16.6c12.7,0,25.5,0,38.2,0
		c1.1,0,2.2-0.1,3.2-0.2c-7.1-7.2-14.2-14.3-21.1-21.3c7.3-7.2,14.2-14,21.4-21c0.4,0.4,1.3,1.1,2.1,1.9
		c11.2,11.1,22.3,22.3,33.4,33.4c13.3,13.4,13.3,31-0.1,44.4c-11.1,11.2-22.3,22.3-33.4,33.4c-0.7,0.7-1.5,1.4-2,1.9
		c-7-7-13.8-13.8-20.7-20.7c6.9-6.8,14-13.9,21.2-20.9c-0.1-0.4-0.3-0.7-0.4-1.1c-1.1,0-2.1,0-3.2,0c-13,0-26,0-38.9,0
		c-23.5,0-41.1-14.6-45.5-37.7c-0.1-0.4-0.4-0.8-0.6-1.2C21.9,273.1,21.9,251.5,21.9,230z"/>
	<path d="M378.1,378c-59.5,0-118.6,0-178.1,0c0-1.4,0-2.6,0-3.8c0-47.5,0-95,0-142.5c0-19,12.5-31.6,31.6-31.6
		c38.4,0,76.7,0,115.1,0c18.8,0,31.4,12.6,31.4,31.3c0,47.6,0,95.3,0,142.9C378.1,375.4,378.1,376.6,378.1,378z M333.5,348.3
		c-3.7-16.3-7.4-32.2-11-48.1c-4-17.4-7.9-34.8-11.9-52.1c-1.8-7.7-5.8-13.9-13.6-16.8c-13.5-5.1-26.5,2.5-30.1,17.6
		c-6.9,29.4-13.9,58.8-20.8,88.2c-0.9,3.6-1.6,7.3-2.5,11.3c6.5,0,12.4-0.1,18.2,0c2.3,0.1,3.2-0.6,3.7-2.9c1.4-6.7,3-13.3,4.8-19.9
		c0.2-0.9,1.4-2.3,2.2-2.3c11.2-0.1,22.5-0.1,33.9-0.1c2,8.4,3.9,16.7,5.8,25.1C319.4,348.3,326.2,348.3,333.5,348.3z"/>
	<path d="M290.1,138.7c-12.6-12.5-25.6-24.8-37.9-37.7c-10.6-11.1-10.5-28.5,0.3-39.7c12.3-12.8,25.1-25.1,37.4-37.3
		c6.8,6.9,13.7,13.8,20.6,20.8c-6.7,6.6-13.8,13.7-21.5,21.5c2,0.1,3.1,0.2,4.1,0.2c13.3,0,26.7,0,40,0
		c25.1,0.1,44.8,19.7,44.9,44.7c0.1,18.7,0,37.3,0,56c0,0.9,0,1.8,0,2.9c-10,0-19.6,0-29.8,0c0-1.4,0-2.6,0-3.8
		c0-17.8,0-35.7,0-53.5c0-10.7-5.8-16.5-16.6-16.5c-12.7,0-25.5,0-38.2,0c-1.1,0-2.3,0-3.4,0c7.2,7.3,14.3,14.4,21.3,21.4
		C303.9,125.1,297,131.9,290.1,138.7z"/>
	<path d="M289.7,250.6c3.9,17.1,7.9,34.2,11.9,51.6c-8.7,0-17,0-26,0c4.1-17.3,8.2-34.4,12.2-51.6
		C288.5,250.6,289.1,250.6,289.7,250.6z"/>
</g>
</svg>
