<?xml version="1.0" encoding="utf-8"?>
<!-- Generator: Adobe Illustrator 27.0.0, SVG Export Plug-In . SVG Version: 6.00 Build 0)  -->
<svg version="1.1" id="Layer_1" xmlns="http://www.w3.org/2000/svg" xmlns:xlink="http://www.w3.org/1999/xlink" x="0px" y="0px"
	 viewBox="0 0 400 400" style="enable-background:new 0 0 400 400;" xml:space="preserve">
<g>
	<path d="M283.1,8c9.5,3.2,12.8,10,12.8,19.9c-0.2,94.1-0.1,188.2-0.1,282.3c0,9-4.5,15.4-12,17.3c-10.1,2.5-19.2-4.4-20-15.2
		c-0.4-4.7-0.4-9.5-1.4-14.1c-4.4-22-18.6-35.5-38.8-43.4c-13.2-5.1-27-6.8-41.1-6.8c-36.5,0-73.1,0.1-109.6,0
		c-31.5-0.1-57.1-21.1-63.4-52c-0.4-2.1-0.9-4.2-0.9-6.3c0.1-15.6-0.8-31.3,0.7-46.8c2.8-29.3,29.5-54,58.9-54.5
		c37.9-0.7,75.8-0.2,113.8-0.3c13.3,0,26.4-1.4,39-5.9c18.9-6.7,33.6-18,39.8-38c1.6-5.3,2.7-11,2.8-16.5
		c0.1-9.6,3.6-16.3,12.8-19.7C278.6,8,280.8,8,283.1,8z"/>
	<path d="M123.6,392c-7.6-1.8-14.8-4.2-21-9.2c-5.2-4.2-9.4-9.3-12.2-15.4c-13.1-29.2-26.2-58.5-39.3-87.7c-0.2-0.5-0.4-1.1-0.6-1.7
		c28.4,4,56.8,1.5,85.2,2.1c2.5,0.1,3.7,0.8,4.7,3.1c7.8,17.3,15.7,34.5,23.5,51.8c11.4,25.1-1.8,51-28.6,56.6
		c-0.5,0.1-0.9,0.4-1.3,0.6C130.6,392,127.1,392,123.6,392z"/>
	<path d="M391.6,91.2c-2,6.4-6.4,10.3-12.4,13c-9.2,4.2-18.1,9-27.1,13.5c-9.2,4.5-18.6,1.8-22.7-6.7c-4.1-8.3-0.7-17.4,8.3-21.9
		c9.7-4.9,19.4-9.7,29.1-14.5c10.9-5.4,19.7-2,24.3,9.3c0.1,0.2,0.3,0.3,0.5,0.5C391.6,86.8,391.6,89,391.6,91.2z"/>
	<path d="M391.6,251.8c-0.4,0.9-0.9,1.7-1.3,2.6c-3.7,8.2-12.9,12.1-21,8.3c-11.3-5.3-22.4-10.9-33.4-16.7
		c-7.7-4.1-10.3-13.4-6.4-21c3.8-7.6,12.9-11.1,20.7-7.4c11.1,5.3,22.1,10.9,33.1,16.5c4.5,2.3,6.7,6.5,8.3,11
		C391.6,247.2,391.6,249.5,391.6,251.8z"/>
	<path d="M391.6,171.5c-3.5,9.6-10.5,13.1-20.4,12.6c-9.1-0.4-18.2,0-27.3-0.1c-8.7-0.2-15.4-6.3-16-14.2
		c-0.7-8.6,4.6-15.9,12.9-17.5c2.2-0.4,4.5-0.3,6.7-0.3c8.1,0,16.2,0.3,24.3-0.1c9.9-0.5,16.5,3.4,19.8,12.8
		C391.6,167,391.6,169.2,391.6,171.5z"/>
</g>
</svg>
