<?xml version="1.0" encoding="utf-8"?>
<!-- Generator: Adobe Illustrator 27.0.0, SVG Export Plug-In . SVG Version: 6.00 Build 0)  -->
<svg version="1.1" id="Layer_1" xmlns="http://www.w3.org/2000/svg" xmlns:xlink="http://www.w3.org/1999/xlink" x="0px" y="0px"
	 viewBox="0 0 400 400" style="enable-background:new 0 0 400 400;" xml:space="preserve">
<g>
	<path d="M392,80.6c0,79.3,0,158.7,0,238c-0.2,1.1-0.6,2.1-0.7,3.2c-4.8,38.8-38.5,69.2-77.9,69.3c-75.3,0.3-150.7,0.3-226,0
		C44.4,391,9,355.5,8.8,312.6c-0.2-75.3-0.2-150.7,0-226c0.1-31.8,20.3-61.1,50-72.6c7-2.7,14.5-4,21.8-6c79.8,0,159.7,0,239.5,0
		c0.7,0.2,1.4,0.6,2.1,0.7c32.1,4.1,58.4,26.9,66.9,58.2C390.3,71.4,391,76,392,80.6z M120.3,199.7
		C120.3,199.7,120.3,199.7,120.3,199.7c0,14.5-0.2,28.9,0.1,43.4c0.4,26.6,28.9,44.6,52.7,33c29.2-14.3,58.2-29,87.2-43.5
		c6.5-3.3,11.5-8.3,15.1-14.6c10.5-18.9,3.2-42-16.4-51.9c-27.7-13.9-55.6-27.6-83.2-41.6c-26.3-13.3-55.3,4.3-55.4,33.7
		C120.3,172,120.3,185.8,120.3,199.7z"/>
	<path d="M152.5,199.4c0-13.5,0-26.9,0-40.4c0-6.7,3.4-8.8,9.4-5.8c27.2,13.5,54.3,27.1,81.5,40.7c2.6,1.3,4.8,2.7,4.8,6
		c0,3.2-2.5,4.3-4.8,5.5c-27,13.5-54.1,27-81.1,40.5c-6.3,3.2-9.7,1-9.7-6.2C152.5,226.3,152.5,212.9,152.5,199.4z"/>
</g>
</svg>
